<svg id="visual" viewBox="0 0 1500 512" width="1500" height="512" xmlns="http://www.w3.org/2000/svg" xmlns:xlink="http://www.w3.org/1999/xlink" version="1.1"><rect x="0" y="0" width="1500" height="512" fill="#000000"></rect><path d="M0 354L16.7 357.7C33.3 361.3 66.7 368.7 100 367.3C133.3 366 166.7 356 200 357.5C233.3 359 266.7 372 300 379.8C333.3 387.7 366.7 390.3 400 394C433.3 397.7 466.7 402.3 500 396.5C533.3 390.7 566.7 374.3 600 370.5C633.3 366.7 666.7 375.3 700 383.7C733.3 392 766.7 400 800 399.8C833.3 399.7 866.7 391.3 900 383C933.3 374.7 966.7 366.3 1000 361.5C1033.3 356.7 1066.7 355.3 1100 364C1133.3 372.7 1166.7 391.3 1200 391.5C1233.3 391.7 1266.7 373.3 1300 362.8C1333.3 352.3 1366.7 349.7 1400 349.8C1433.3 350 1466.7 353 1483.3 354.5L1500 356L1500 513L1483.3 513C1466.7 513 1433.3 513 1400 513C1366.7 513 1333.3 513 1300 513C1266.7 513 1233.3 513 1200 513C1166.7 513 1133.3 513 1100 513C1066.7 513 1033.3 513 1000 513C966.7 513 933.3 513 900 513C866.7 513 833.3 513 800 513C766.7 513 733.3 513 700 513C666.7 513 633.3 513 600 513C566.7 513 533.3 513 500 513C466.7 513 433.3 513 400 513C366.7 513 333.3 513 300 513C266.7 513 233.3 513 200 513C166.7 513 133.3 513 100 513C66.7 513 33.3 513 16.7 513L0 513Z" fill="#0056d6"></path><path d="M0 376L16.7 384C33.3 392 66.7 408 100 413.7C133.3 419.3 166.7 414.7 200 407C233.3 399.3 266.7 388.7 300 387.8C333.3 387 366.7 396 400 400.5C433.3 405 466.7 405 500 401.7C533.3 398.3 566.7 391.7 600 387.3C633.3 383 666.7 381 700 386.5C733.3 392 766.7 405 800 413.5C833.3 422 866.7 426 900 417.7C933.3 409.3 966.7 388.7 1000 382C1033.3 375.3 1066.7 382.7 1100 391.2C1133.3 399.7 1166.7 409.3 1200 412.8C1233.3 416.3 1266.7 413.7 1300 407.3C1333.3 401 1366.7 391 1400 390.3C1433.3 389.7 1466.7 398.3 1483.3 402.7L1500 407L1500 513L1483.3 513C1466.7 513 1433.3 513 1400 513C1366.7 513 1333.3 513 1300 513C1266.7 513 1233.3 513 1200 513C1166.7 513 1133.3 513 1100 513C1066.7 513 1033.3 513 1000 513C966.7 513 933.3 513 900 513C866.7 513 833.3 513 800 513C766.7 513 733.3 513 700 513C666.7 513 633.3 513 600 513C566.7 513 533.3 513 500 513C466.7 513 433.3 513 400 513C366.7 513 333.3 513 300 513C266.7 513 233.3 513 200 513C166.7 513 133.3 513 100 513C66.7 513 33.3 513 16.7 513L0 513Z" fill="#0344bf"></path><path d="M0 429L16.7 424C33.3 419 66.7 409 100 409.3C133.3 409.7 166.7 420.3 200 424C233.3 427.7 266.7 424.3 300 418.5C333.3 412.7 366.7 404.3 400 407.7C433.3 411 466.7 426 500 428.8C533.3 431.7 566.7 422.3 600 422.7C633.3 423 666.7 433 700 429.8C733.3 426.7 766.7 410.3 800 402.5C833.3 394.7 866.7 395.3 900 400.3C933.3 405.3 966.7 414.7 1000 417C1033.3 419.3 1066.7 414.7 1100 410C1133.3 405.3 1166.7 400.7 1200 405.5C1233.3 410.3 1266.7 424.7 1300 428.2C1333.3 431.7 1366.7 424.3 1400 419.8C1433.3 415.3 1466.7 413.7 1483.3 412.8L1500 412L1500 513L1483.3 513C1466.7 513 1433.3 513 1400 513C1366.7 513 1333.3 513 1300 513C1266.7 513 1233.3 513 1200 513C1166.7 513 1133.3 513 1100 513C1066.7 513 1033.3 513 1000 513C966.7 513 933.3 513 900 513C866.7 513 833.3 513 800 513C766.7 513 733.3 513 700 513C666.7 513 633.3 513 600 513C566.7 513 533.3 513 500 513C466.7 513 433.3 513 400 513C366.7 513 333.3 513 300 513C266.7 513 233.3 513 200 513C166.7 513 133.3 513 100 513C66.7 513 33.3 513 16.7 513L0 513Z" fill="#0233a8"></path><path d="M0 443L16.7 443.8C33.3 444.7 66.7 446.3 100 445.7C133.3 445 166.7 442 200 443.5C233.3 445 266.7 451 300 454C333.3 457 366.7 457 400 456.3C433.3 455.7 466.7 454.3 500 455C533.3 455.7 566.7 458.3 600 455.8C633.3 453.3 666.7 445.7 700 441.8C733.3 438 766.7 438 800 439.7C833.3 441.3 866.7 444.7 900 442.3C933.3 440 966.7 432 1000 433.7C1033.3 435.3 1066.7 446.7 1100 449.2C1133.3 451.7 1166.7 445.3 1200 444C1233.3 442.7 1266.7 446.3 1300 449.5C1333.3 452.7 1366.7 455.3 1400 453.8C1433.3 452.3 1466.7 446.7 1483.3 443.8L1500 441L1500 513L1483.3 513C1466.7 513 1433.3 513 1400 513C1366.7 513 1333.3 513 1300 513C1266.7 513 1233.3 513 1200 513C1166.7 513 1133.3 513 1100 513C1066.7 513 1033.3 513 1000 513C966.7 513 933.3 513 900 513C866.7 513 833.3 513 800 513C766.7 513 733.3 513 700 513C666.7 513 633.3 513 600 513C566.7 513 533.3 513 500 513C466.7 513 433.3 513 400 513C366.7 513 333.3 513 300 513C266.7 513 233.3 513 200 513C166.7 513 133.3 513 100 513C66.7 513 33.3 513 16.7 513L0 513Z" fill="#002090"></path><path d="M0 466L16.7 467.2C33.3 468.3 66.7 470.7 100 470.8C133.3 471 166.7 469 200 466.7C233.3 464.3 266.7 461.7 300 460.7C333.3 459.7 366.7 460.3 400 461C433.3 461.7 466.7 462.3 500 460.8C533.3 459.3 566.7 455.7 600 458.3C633.3 461 666.7 470 700 473.7C733.3 477.3 766.7 475.7 800 473.3C833.3 471 866.7 468 900 463.5C933.3 459 966.7 453 1000 455.3C1033.3 457.7 1066.7 468.3 1100 471C1133.3 473.7 1166.7 468.3 1200 467.2C1233.3 466 1266.7 469 1300 465.8C1333.3 462.7 1366.7 453.3 1400 449C1433.3 444.7 1466.7 445.3 1483.3 445.7L1500 446L1500 513L1483.3 513C1466.7 513 1433.3 513 1400 513C1366.7 513 1333.3 513 1300 513C1266.7 513 1233.3 513 1200 513C1166.7 513 1133.3 513 1100 513C1066.7 513 1033.3 513 1000 513C966.7 513 933.3 513 900 513C866.7 513 833.3 513 800 513C766.7 513 733.3 513 700 513C666.7 513 633.3 513 600 513C566.7 513 533.3 513 500 513C466.7 513 433.3 513 400 513C366.7 513 333.3 513 300 513C266.7 513 233.3 513 200 513C166.7 513 133.3 513 100 513C66.7 513 33.3 513 16.7 513L0 513Z" fill="#000d77"></path><path d="M0 485L16.7 482.5C33.3 480 66.7 475 100 475.8C133.3 476.7 166.7 483.3 200 484.7C233.3 486 266.7 482 300 478.8C333.3 475.7 366.7 473.3 400 474.3C433.3 475.3 466.7 479.7 500 480.3C533.3 481 566.7 478 600 478.2C633.3 478.3 666.7 481.7 700 480.5C733.3 479.3 766.7 473.7 800 471.2C833.3 468.7 866.7 469.3 900 472.5C933.3 475.7 966.7 481.3 1000 483.5C1033.3 485.7 1066.7 484.3 1100 482.8C1133.3 481.3 1166.7 479.7 1200 481C1233.3 482.3 1266.7 486.7 1300 486.2C1333.3 485.7 1366.7 480.3 1400 478.7C1433.3 477 1466.7 479 1483.3 480L1500 481L1500 513L1483.3 513C1466.7 513 1433.3 513 1400 513C1366.7 513 1333.3 513 1300 513C1266.7 513 1233.3 513 1200 513C1166.7 513 1133.3 513 1100 513C1066.7 513 1033.3 513 1000 513C966.7 513 933.3 513 900 513C866.7 513 833.3 513 800 513C766.7 513 733.3 513 700 513C666.7 513 633.3 513 600 513C566.7 513 533.3 513 500 513C466.7 513 433.3 513 400 513C366.7 513 333.3 513 300 513C266.7 513 233.3 513 200 513C166.7 513 133.3 513 100 513C66.7 513 33.3 513 16.7 513L0 513Z" fill="#000000"></path></svg>